<svg xmlns="http://www.w3.org/2000/svg" xmlns:xlink="http://www.w3.org/1999/xlink" width="500" zoomAndPan="magnify" viewBox="0 0 375 374.999991" height="500" preserveAspectRatio="xMidYMid meet" version="1.0"><defs><g/><clipPath id="d597e4d5ce"><path d="M 133.410156 42.542969 L 221.414062 42.542969 L 221.414062 130.546875 L 133.410156 130.546875 Z M 133.410156 42.542969 " clip-rule="nonzero"/></clipPath><clipPath id="ff84d2fef6"><path d="M 177.414062 42.542969 C 153.113281 42.542969 133.410156 62.242188 133.410156 86.546875 C 133.410156 110.847656 153.113281 130.546875 177.414062 130.546875 C 201.714844 130.546875 221.414062 110.847656 221.414062 86.546875 C 221.414062 62.242188 201.714844 42.542969 177.414062 42.542969 Z M 177.414062 42.542969 " clip-rule="nonzero"/></clipPath><clipPath id="3a6e4fc9fe"><path d="M 0.410156 0.542969 L 88.414062 0.542969 L 88.414062 88.546875 L 0.410156 88.546875 Z M 0.410156 0.542969 " clip-rule="nonzero"/></clipPath><clipPath id="2132604744"><path d="M 44.414062 0.542969 C 20.113281 0.542969 0.410156 20.242188 0.410156 44.546875 C 0.410156 68.847656 20.113281 88.546875 44.414062 88.546875 C 68.714844 88.546875 88.414062 68.847656 88.414062 44.546875 C 88.414062 20.242188 68.714844 0.542969 44.414062 0.542969 Z M 44.414062 0.542969 " clip-rule="nonzero"/></clipPath><clipPath id="0fc9d99a24"><rect x="0" width="89" y="0" height="89"/></clipPath><clipPath id="bfab1a1e28"><path d="M 133.410156 42.542969 L 221.160156 42.542969 L 221.160156 130.292969 L 133.410156 130.292969 Z M 133.410156 42.542969 " clip-rule="nonzero"/></clipPath><clipPath id="70ecacab4e"><path d="M 177.410156 42.542969 C 153.109375 42.542969 133.410156 62.242188 133.410156 86.542969 C 133.410156 110.839844 153.109375 130.539062 177.410156 130.539062 C 201.710938 130.539062 221.40625 110.839844 221.40625 86.542969 C 221.40625 62.242188 201.710938 42.542969 177.410156 42.542969 Z M 177.410156 42.542969 " clip-rule="nonzero"/></clipPath><clipPath id="5a0644032f"><path d="M 76.242188 142.160156 L 164.246094 142.160156 L 164.246094 230.160156 L 76.242188 230.160156 Z M 76.242188 142.160156 " clip-rule="nonzero"/></clipPath><clipPath id="7d7a5e0478"><path d="M 120.246094 142.160156 C 95.941406 142.160156 76.242188 161.859375 76.242188 186.160156 C 76.242188 210.460938 95.941406 230.160156 120.246094 230.160156 C 144.546875 230.160156 164.246094 210.460938 164.246094 186.160156 C 164.246094 161.859375 144.546875 142.160156 120.246094 142.160156 Z M 120.246094 142.160156 " clip-rule="nonzero"/></clipPath><clipPath id="16d2f7e62e"><path d="M 0.242188 0.160156 L 88.246094 0.160156 L 88.246094 88.160156 L 0.242188 88.160156 Z M 0.242188 0.160156 " clip-rule="nonzero"/></clipPath><clipPath id="688f974263"><path d="M 44.246094 0.160156 C 19.941406 0.160156 0.242188 19.859375 0.242188 44.160156 C 0.242188 68.460938 19.941406 88.160156 44.246094 88.160156 C 68.546875 88.160156 88.246094 68.460938 88.246094 44.160156 C 88.246094 19.859375 68.546875 0.160156 44.246094 0.160156 Z M 44.246094 0.160156 " clip-rule="nonzero"/></clipPath><clipPath id="aaa10b2a4a"><rect x="0" width="89" y="0" height="89"/></clipPath><clipPath id="3d4163b2f2"><path d="M 76.242188 142.160156 L 163.992188 142.160156 L 163.992188 229.910156 L 76.242188 229.910156 Z M 76.242188 142.160156 " clip-rule="nonzero"/></clipPath><clipPath id="9a3c8992ce"><path d="M 120.242188 142.160156 C 95.941406 142.160156 76.242188 161.855469 76.242188 186.15625 C 76.242188 210.457031 95.941406 230.15625 120.242188 230.15625 C 144.539062 230.15625 164.238281 210.457031 164.238281 186.15625 C 164.238281 161.855469 144.539062 142.160156 120.242188 142.160156 Z M 120.242188 142.160156 " clip-rule="nonzero"/></clipPath><clipPath id="ba911ac09a"><path d="M 221.414062 138.453125 L 309.417969 138.453125 L 309.417969 226.457031 L 221.414062 226.457031 Z M 221.414062 138.453125 " clip-rule="nonzero"/></clipPath><clipPath id="04f30402c0"><path d="M 265.414062 138.453125 C 241.113281 138.453125 221.414062 158.15625 221.414062 182.457031 C 221.414062 206.757812 241.113281 226.457031 265.414062 226.457031 C 289.71875 226.457031 309.417969 206.757812 309.417969 182.457031 C 309.417969 158.15625 289.71875 138.453125 265.414062 138.453125 Z M 265.414062 138.453125 " clip-rule="nonzero"/></clipPath><clipPath id="ce86ed5fe6"><path d="M 0.414062 0.453125 L 88.417969 0.453125 L 88.417969 88.457031 L 0.414062 88.457031 Z M 0.414062 0.453125 " clip-rule="nonzero"/></clipPath><clipPath id="d5d1a05714"><path d="M 44.414062 0.453125 C 20.113281 0.453125 0.414062 20.15625 0.414062 44.457031 C 0.414062 68.757812 20.113281 88.457031 44.414062 88.457031 C 68.71875 88.457031 88.417969 68.757812 88.417969 44.457031 C 88.417969 20.15625 68.71875 0.453125 44.414062 0.453125 Z M 44.414062 0.453125 " clip-rule="nonzero"/></clipPath><clipPath id="6e6099e05c"><rect x="0" width="89" y="0" height="89"/></clipPath><clipPath id="b4d3ed37a3"><path d="M 221.414062 138.453125 L 309.164062 138.453125 L 309.164062 226.203125 L 221.414062 226.203125 Z M 221.414062 138.453125 " clip-rule="nonzero"/></clipPath><clipPath id="dfb5740b10"><path d="M 265.414062 138.453125 C 241.113281 138.453125 221.414062 158.152344 221.414062 182.453125 C 221.414062 206.753906 241.113281 226.449219 265.414062 226.449219 C 289.710938 226.449219 309.410156 206.753906 309.410156 182.453125 C 309.410156 158.152344 289.710938 138.453125 265.414062 138.453125 Z M 265.414062 138.453125 " clip-rule="nonzero"/></clipPath><clipPath id="2b5cc2cb49"><path d="M 164.246094 244.453125 L 252.25 244.453125 L 252.25 332.457031 L 164.246094 332.457031 Z M 164.246094 244.453125 " clip-rule="nonzero"/></clipPath><clipPath id="3602377aa7"><path d="M 208.246094 244.453125 C 183.945312 244.453125 164.246094 264.152344 164.246094 288.453125 C 164.246094 312.757812 183.945312 332.457031 208.246094 332.457031 C 232.546875 332.457031 252.25 312.757812 252.25 288.453125 C 252.25 264.152344 232.546875 244.453125 208.246094 244.453125 Z M 208.246094 244.453125 " clip-rule="nonzero"/></clipPath><clipPath id="91391fd146"><path d="M 0.246094 0.453125 L 88.25 0.453125 L 88.25 88.457031 L 0.246094 88.457031 Z M 0.246094 0.453125 " clip-rule="nonzero"/></clipPath><clipPath id="020a7a1f2f"><path d="M 44.246094 0.453125 C 19.945312 0.453125 0.246094 20.152344 0.246094 44.453125 C 0.246094 68.757812 19.945312 88.457031 44.246094 88.457031 C 68.546875 88.457031 88.25 68.757812 88.25 44.453125 C 88.25 20.152344 68.546875 0.453125 44.246094 0.453125 Z M 44.246094 0.453125 " clip-rule="nonzero"/></clipPath><clipPath id="537717a2ad"><rect x="0" width="89" y="0" height="89"/></clipPath><clipPath id="5155a92f6f"><path d="M 164.246094 244.453125 L 251.996094 244.453125 L 251.996094 332.203125 L 164.246094 332.203125 Z M 164.246094 244.453125 " clip-rule="nonzero"/></clipPath><clipPath id="4eb5230c39"><path d="M 208.242188 244.453125 C 183.945312 244.453125 164.246094 264.152344 164.246094 288.453125 C 164.246094 312.75 183.945312 332.449219 208.242188 332.449219 C 232.542969 332.449219 252.242188 312.75 252.242188 288.453125 C 252.242188 264.152344 232.542969 244.453125 208.242188 244.453125 Z M 208.242188 244.453125 " clip-rule="nonzero"/></clipPath><clipPath id="d2f291fa30"><path d="M 265.414062 244.453125 L 353.417969 244.453125 L 353.417969 332.457031 L 265.414062 332.457031 Z M 265.414062 244.453125 " clip-rule="nonzero"/></clipPath><clipPath id="a87d9ecd78"><path d="M 309.417969 244.453125 C 285.117188 244.453125 265.414062 264.152344 265.414062 288.453125 C 265.414062 312.757812 285.117188 332.457031 309.417969 332.457031 C 333.71875 332.457031 353.417969 312.757812 353.417969 288.453125 C 353.417969 264.152344 333.71875 244.453125 309.417969 244.453125 Z M 309.417969 244.453125 " clip-rule="nonzero"/></clipPath><clipPath id="b50a116bd8"><path d="M 0.414062 0.453125 L 88.417969 0.453125 L 88.417969 88.457031 L 0.414062 88.457031 Z M 0.414062 0.453125 " clip-rule="nonzero"/></clipPath><clipPath id="0792172b66"><path d="M 44.417969 0.453125 C 20.117188 0.453125 0.414062 20.152344 0.414062 44.453125 C 0.414062 68.757812 20.117188 88.457031 44.417969 88.457031 C 68.71875 88.457031 88.417969 68.757812 88.417969 44.453125 C 88.417969 20.152344 68.71875 0.453125 44.417969 0.453125 Z M 44.417969 0.453125 " clip-rule="nonzero"/></clipPath><clipPath id="f45f18dbae"><rect x="0" width="89" y="0" height="89"/></clipPath><clipPath id="ff4c04530a"><path d="M 265.414062 244.453125 L 353.164062 244.453125 L 353.164062 332.203125 L 265.414062 332.203125 Z M 265.414062 244.453125 " clip-rule="nonzero"/></clipPath><clipPath id="d9bfd2cd41"><path d="M 309.414062 244.453125 C 285.113281 244.453125 265.414062 264.152344 265.414062 288.453125 C 265.414062 312.75 285.113281 332.449219 309.414062 332.449219 C 333.714844 332.449219 353.410156 312.75 353.410156 288.453125 C 353.410156 264.152344 333.714844 244.453125 309.414062 244.453125 Z M 309.414062 244.453125 " clip-rule="nonzero"/></clipPath><clipPath id="8a5d667b7b"><rect x="0" width="36" y="0" height="67"/></clipPath><clipPath id="db6ba5e82d"><rect x="0" width="36" y="0" height="67"/></clipPath><clipPath id="0fc8905872"><rect x="0" width="36" y="0" height="67"/></clipPath></defs><g clip-path="url(#d597e4d5ce)"><g clip-path="url(#ff84d2fef6)"><g transform="matrix(1, 0, 0, 1, 133, 42)"><g clip-path="url(#0fc9d99a24)"><g clip-path="url(#3a6e4fc9fe)"><g clip-path="url(#2132604744)"><path fill="#fff8bd" d="M 0.410156 0.542969 L 88.414062 0.542969 L 88.414062 88.546875 L 0.410156 88.546875 Z M 0.410156 0.542969 " fill-opacity="1" fill-rule="nonzero"/></g></g></g></g></g></g><g clip-path="url(#bfab1a1e28)"><g clip-path="url(#70ecacab4e)"><path stroke-linecap="butt" transform="matrix(0.75, 0, 0, 0.75, 133.41152, 42.543549)" fill="none" stroke-linejoin="miter" d="M 58.664853 -0.000773942 C 26.263809 -0.000773942 -0.00181799 26.264853 -0.00181799 58.665897 C -0.00181799 91.061732 26.263809 117.327359 58.664853 117.327359 C 91.065896 117.327359 117.326315 91.061732 117.326315 58.665897 C 117.326315 26.264853 91.065896 -0.000773942 58.664853 -0.000773942 Z M 58.664853 -0.000773942 " stroke="#000000" stroke-width="12" stroke-opacity="1" stroke-miterlimit="4"/></g></g><g clip-path="url(#5a0644032f)"><g clip-path="url(#7d7a5e0478)"><g transform="matrix(1, 0, 0, 1, 76, 142)"><g clip-path="url(#aaa10b2a4a)"><g clip-path="url(#16d2f7e62e)"><g clip-path="url(#688f974263)"><path fill="#ffffff" d="M 0.242188 0.160156 L 88.246094 0.160156 L 88.246094 88.160156 L 0.242188 88.160156 Z M 0.242188 0.160156 " fill-opacity="1" fill-rule="nonzero"/></g></g></g></g></g></g><g clip-path="url(#3d4163b2f2)"><g clip-path="url(#9a3c8992ce)"><path stroke-linecap="butt" transform="matrix(0.75, 0, 0, 0.75, 76.242832, 142.158478)" fill="none" stroke-linejoin="miter" d="M 58.665811 0.00223785 C 26.264767 0.00223785 -0.000859725 26.262656 -0.000859725 58.6637 C -0.000859725 91.064744 26.264767 117.330371 58.665811 117.330371 C 91.061646 117.330371 117.327273 91.064744 117.327273 58.6637 C 117.327273 26.262656 91.061646 0.00223785 58.665811 0.00223785 Z M 58.665811 0.00223785 " stroke="#000000" stroke-width="12" stroke-opacity="1" stroke-miterlimit="4"/></g></g><g clip-path="url(#ba911ac09a)"><g clip-path="url(#04f30402c0)"><g transform="matrix(1, 0, 0, 1, 221, 138)"><g clip-path="url(#6e6099e05c)"><g clip-path="url(#ce86ed5fe6)"><g clip-path="url(#d5d1a05714)"><path fill="#fff8bd" d="M 0.414062 0.453125 L 88.417969 0.453125 L 88.417969 88.457031 L 0.414062 88.457031 Z M 0.414062 0.453125 " fill-opacity="1" fill-rule="nonzero"/></g></g></g></g></g></g><g clip-path="url(#b4d3ed37a3)"><g clip-path="url(#dfb5740b10)"><path stroke-linecap="butt" transform="matrix(0.75, 0, 0, 0.75, 221.414258, 138.45506)" fill="none" stroke-linejoin="miter" d="M 58.66641 -0.00257961 C 26.265366 -0.00257961 -0.000260614 26.263047 -0.000260614 58.664091 C -0.000260614 91.065135 26.265366 117.325553 58.66641 117.325553 C 91.062245 117.325553 117.327872 91.065135 117.327872 58.664091 C 117.327872 26.263047 91.062245 -0.00257961 58.66641 -0.00257961 Z M 58.66641 -0.00257961 " stroke="#000000" stroke-width="12" stroke-opacity="1" stroke-miterlimit="4"/></g></g><g clip-path="url(#2b5cc2cb49)"><g clip-path="url(#3602377aa7)"><g transform="matrix(1, 0, 0, 1, 164, 244)"><g clip-path="url(#537717a2ad)"><g clip-path="url(#91391fd146)"><g clip-path="url(#020a7a1f2f)"><path fill="#fff8bd" d="M 0.246094 0.453125 L 88.25 0.453125 L 88.25 88.457031 L 0.246094 88.457031 Z M 0.246094 0.453125 " fill-opacity="1" fill-rule="nonzero"/></g></g></g></g></g></g><g clip-path="url(#5155a92f6f)"><g clip-path="url(#4eb5230c39)"><path stroke-linecap="butt" transform="matrix(0.75, 0, 0, 0.75, 164.245571, 244.453681)" fill="none" stroke-linejoin="miter" d="M 58.66216 -0.000740997 C 26.266324 -0.000740997 0.000697647 26.264886 0.000697647 58.66593 C 0.000697647 91.061765 26.266324 117.327392 58.66216 117.327392 C 91.063204 117.327392 117.32883 91.061765 117.32883 58.66593 C 117.32883 26.264886 91.063204 -0.000740997 58.66216 -0.000740997 Z M 58.66216 -0.000740997 " stroke="#000000" stroke-width="12" stroke-opacity="1" stroke-miterlimit="4"/></g></g><g clip-path="url(#d2f291fa30)"><g clip-path="url(#a87d9ecd78)"><g transform="matrix(1, 0, 0, 1, 265, 244)"><g clip-path="url(#f45f18dbae)"><g clip-path="url(#b50a116bd8)"><g clip-path="url(#0792172b66)"><path fill="#ffffff" d="M 0.414062 0.453125 L 88.417969 0.453125 L 88.417969 88.457031 L 0.414062 88.457031 Z M 0.414062 0.453125 " fill-opacity="1" fill-rule="nonzero"/></g></g></g></g></g></g><g clip-path="url(#ff4c04530a)"><g clip-path="url(#d9bfd2cd41)"><path stroke-linecap="butt" transform="matrix(0.75, 0, 0, 0.75, 265.415641, 244.453681)" fill="none" stroke-linejoin="miter" d="M 58.664565 -0.000740997 C 26.263521 -0.000740997 -0.00210529 26.264886 -0.00210529 58.66593 C -0.00210529 91.061765 26.263521 117.327392 58.664565 117.327392 C 91.065609 117.327392 117.326027 91.061765 117.326027 58.66593 C 117.326027 26.264886 91.065609 -0.000740997 58.664565 -0.000740997 Z M 58.664565 -0.000740997 " stroke="#000000" stroke-width="12" stroke-opacity="1" stroke-miterlimit="4"/></g></g><g transform="matrix(1, 0, 0, 1, 159, 48)"><g clip-path="url(#8a5d667b7b)"><g fill="#000000" fill-opacity="1"><g transform="translate(3.692789, 51.09163)"><g><path d="M 25.359375 0 L 21.234375 -10.53125 L 7.96875 -10.53125 L 3.890625 0 L 0 0 L 13.078125 -33.234375 L 16.328125 -33.234375 L 29.34375 0 Z M 20.03125 -13.984375 L 16.1875 -24.25 C 15.6875 -25.539062 15.171875 -27.128906 14.640625 -29.015625 C 14.304688 -27.566406 13.832031 -25.976562 13.21875 -24.25 L 9.328125 -13.984375 Z M 20.03125 -13.984375 "/></g></g></g></g></g><g transform="matrix(1, 0, 0, 1, 247, 147)"><g clip-path="url(#db6ba5e82d)"><g fill="#000000" fill-opacity="1"><g transform="translate(4.057698, 50.909075)"><g><path d="M 8.390625 -13.765625 L 8.390625 0 L 4.546875 0 L 4.546875 -33.09375 L 13.625 -33.09375 C 17.6875 -33.09375 20.6875 -32.316406 22.625 -30.765625 C 24.5625 -29.210938 25.53125 -26.875 25.53125 -23.75 C 25.53125 -19.375 23.3125 -16.414062 18.875 -14.875 L 27.859375 0 L 23.3125 0 L 15.296875 -13.765625 Z M 8.390625 -17.0625 L 13.671875 -17.0625 C 16.390625 -17.0625 18.378906 -17.601562 19.640625 -18.6875 C 20.910156 -19.769531 21.546875 -21.390625 21.546875 -23.546875 C 21.546875 -25.734375 20.898438 -27.304688 19.609375 -28.265625 C 18.316406 -29.234375 16.25 -29.71875 13.40625 -29.71875 L 8.390625 -29.71875 Z M 8.390625 -17.0625 "/></g></g></g></g></g><g transform="matrix(1, 0, 0, 1, 190, 253)"><g clip-path="url(#0fc8905872)"><g fill="#000000" fill-opacity="1"><g transform="translate(1.293465, 50.907696)"><g><path d="M 19.109375 -17.34375 L 30.359375 -17.34375 L 30.359375 -1.25 C 28.609375 -0.6875 26.828125 -0.265625 25.015625 0.015625 C 23.203125 0.304688 21.101562 0.453125 18.71875 0.453125 C 13.707031 0.453125 9.804688 -1.035156 7.015625 -4.015625 C 4.222656 -6.992188 2.828125 -11.171875 2.828125 -16.546875 C 2.828125 -19.984375 3.515625 -22.992188 4.890625 -25.578125 C 6.273438 -28.171875 8.265625 -30.148438 10.859375 -31.515625 C 13.460938 -32.878906 16.503906 -33.5625 19.984375 -33.5625 C 23.515625 -33.5625 26.804688 -32.914062 29.859375 -31.625 L 28.359375 -28.234375 C 25.367188 -29.492188 22.492188 -30.125 19.734375 -30.125 C 15.703125 -30.125 12.554688 -28.925781 10.296875 -26.53125 C 8.035156 -24.132812 6.90625 -20.804688 6.90625 -16.546875 C 6.90625 -12.078125 7.992188 -8.6875 10.171875 -6.375 C 12.359375 -4.070312 15.5625 -2.921875 19.78125 -2.921875 C 22.070312 -2.921875 24.3125 -3.1875 26.5 -3.71875 L 26.5 -13.90625 L 19.109375 -13.90625 Z M 19.109375 -17.34375 "/></g></g></g></g></g><path stroke-linecap="butt" transform="matrix(0.329668, -0.673661, 0.673661, 0.329668, 137.336479, 145.523604)" fill="none" stroke-linejoin="miter" d="M 0.00218741 3.00177 L 36.386238 2.998089 " stroke="#000000" stroke-width="6" stroke-opacity="1" stroke-miterlimit="4"/><path stroke-linecap="butt" transform="matrix(-0.490215, -0.567617, 0.567617, -0.490215, 230.752825, 154.770429)" fill="none" stroke-linejoin="miter" d="M -0.00218625 3.000498 L 57.116454 3.001217 " stroke="#000000" stroke-width="6" stroke-opacity="1" stroke-miterlimit="4"/><path stroke-linecap="butt" transform="matrix(-0.448563, -0.601075, 0.601075, -0.448563, 307.607591, 245.796253)" fill="none" stroke-linejoin="miter" d="M 0.0019639 3.000368 L 42.713542 2.998155 " stroke="#000000" stroke-width="6" stroke-opacity="1" stroke-miterlimit="4"/><path stroke-linecap="butt" transform="matrix(0.311429, -0.682284, 0.682284, 0.311429, 225.518985, 247.97263)" fill="none" stroke-linejoin="miter" d="M 0.0011235 3.00032 L 44.531551 2.999038 " stroke="#000000" stroke-width="6" stroke-opacity="1" stroke-miterlimit="4"/></svg>